<?xml version="1.0" encoding="UTF-8" standalone="no"?>
<svg version="1.1" xmlns="http://www.w3.org/2000/svg" xmlns:xlink="http://www.w3.org/1999/xlink" preserveAspectRatio="xMidYMid meet" viewBox="0 0 640 640" width="640" height="640"><defs><path d="M555.54 329.11C406.48 184.97 330.4 112.79 305.99 92.41C281.59 72.04 261.57 90.72 258.03 94.77C242.68 112.36 210.17 142.41 194.81 159.99C191.28 164.04 163.48 192.55 186.94 218.03C210.4 243.51 307.75 330.84 443.8 458.8C466.68 431.83 544.1 342.6 555.54 329.11Z" id="c4qzQuZZJR"></path><path d="M503.52 609.85C503.52 616.98 503.52 608.94 503.52 615.86C503.52 624.46 496.43 635.84 473.98 635.84C451.52 635.84 61.54 633.5 37.82 635.84C14.11 638.19 4.75 623.45 4.75 615.86C4.75 608.57 4.75 616.61 4.75 609.85C4.75 600.82 10.22 585.69 37.82 585.69C65.43 585.69 449.8 584.91 473.98 585.69C498.15 586.47 503.52 601.84 503.52 609.85Z" id="aNy1dpOmb"></path><path d="M545.86 514.95C553 506.66 610.11 440.39 617.25 432.1C629.55 417.79 628.46 395.67 614.81 382.64C613.5 381.39 606.89 375.09 595.02 363.78C583.41 377.24 490.61 484.94 479.01 498.4C489.57 508.46 496.17 514.75 498.81 517.26C512.48 530.25 533.53 529.22 545.86 514.95Z" id="aYI2cZq22"></path></defs><g><g><g><use xlink:href="#c4qzQuZZJR" opacity="1" fill="#212121" fill-opacity="1"></use><g><use xlink:href="#c4qzQuZZJR" opacity="1" fill-opacity="0" stroke="#000000" stroke-width="1" stroke-opacity="0"></use></g></g><g><use xlink:href="#aNy1dpOmb" opacity="1" fill="var" fill-opacity="1"></use><g><use xlink:href="#aNy1dpOmb" opacity="1" fill-opacity="0" stroke="#000000" stroke-width="1" stroke-opacity="0"></use></g></g><g><use xlink:href="#aYI2cZq22" opacity="1" fill="var" fill-opacity="1"></use><g><use xlink:href="#aYI2cZq22" opacity="1" fill-opacity="0" stroke="#000000" stroke-width="1" stroke-opacity="0"></use></g></g></g></g></svg>