<svg xmlns="http://www.w3.org/2000/svg" xmlns:xlink="http://www.w3.org/1999/xlink" version="1.1" x="0px" y="0px" viewBox="0 0 20 25" enable-background="new 0 0 20 20" xml:space="preserve"><g><path fill="#212121" d="M5.7,15.7L6.4,15h1.9c0.6,0,1.1-0.2,1.5-0.7l0,0l-4.2-4.2l0,0C5.2,10.5,5,11.1,5,11.7v1.9l-0.7,0.7   c-0.4,0.4-0.4,1,0,1.4C4.7,16.1,5.3,16.1,5.7,15.7z"/><path fill="#212121" d="M10.9,12.5c0.2,0.2,0.4,0.2,0.6,0l8.3-9.3c0.3-0.4,0.3-1,0-1.4l-1.5-1.5c-0.4-0.4-1-0.4-1.4,0L7.5,8.5   c-0.2,0.2-0.2,0.4,0,0.6L10.9,12.5z"/><path fill="highlightColor.hex" d="M19,18H3.4l0.2-0.2c0.4-0.4,0.4-1,0-1.4c-0.4-0.4-1-0.4-1.4,0l-1.9,1.9C0,18.6-0.1,19,0.1,19.4   C0.2,19.8,0.6,20,1,20h18c0.6,0,1-0.4,1-1C20,18.4,19.6,18,19,18z"/></g><text x="0" y="35" fill="#212121" font-size="5px" font-weight="bold" font-family="'Helvetica Neue', Helvetica, Arial-Unicode, Arial, Sans-serif">Created by ProSymbols</text><text x="0" y="40" fill="#212121" font-size="5px" font-weight="bold" font-family="'Helvetica Neue', Helvetica, Arial-Unicode, Arial, Sans-serif">from the Noun Project</text></svg>