<svg xmlns="http://www.w3.org/2000/svg" data-name="Layer 1" viewBox="0 0 32 40" x="0px" y="0px"><path d="M21,1a10.017,10.017,0,0,0-9.539,7H4a3,3,0,0,0-3,3V23a3,3,0,0,0,3,3H8.434l2.709,4.515a1,1,0,0,0,1.714,0L15.566,26H20a3,3,0,0,0,3-3V20.8A10,10,0,0,0,21,1Zm0,22a1,1,0,0,1-1,1H15a1,1,0,0,0-.857.485L12,28.057,9.857,24.485A1,1,0,0,0,9,24H4a1,1,0,0,1-1-1V11a1,1,0,0,1,1-1h7.051A9.992,9.992,0,0,0,21,21Zm0-4a8,8,0,1,1,8-8A8.009,8.009,0,0,1,21,19Z"/><path d="M21,5a3,3,0,0,0-3,3,1,1,0,0,0,2,0,1,1,0,0,1,2,0c0,.562-.217.8-.707,1.293A3.563,3.563,0,0,0,20,12a1,1,0,0,0,2,0c0-.562.217-.8.707-1.293A3.563,3.563,0,0,0,24,8,3,3,0,0,0,21,5Z"/><circle cx="21" cy="16" r="1"/><path d="M6,14H8a1,1,0,0,0,0-2H6a1,1,0,0,0,0,2Z"/><path d="M6,18H9a1,1,0,0,0,0-2H6a1,1,0,0,0,0,2Z"/><path d="M12,20H6a1,1,0,0,0,0,2h6a1,1,0,0,0,0-2Z"/><text x="0" y="47" fill="#000000" font-size="5px" font-weight="bold" font-family="'Helvetica Neue', Helvetica, Arial-Unicode, Arial, Sans-serif">Created by Gicon studio</text><text x="0" y="52" fill="#000000" font-size="5px" font-weight="bold" font-family="'Helvetica Neue', Helvetica, Arial-Unicode, Arial, Sans-serif">from the Noun Project</text></svg>