<svg xmlns="http://www.w3.org/2000/svg" xmlns:xlink="http://www.w3.org/1999/xlink" viewBox="0 0 749.86 107.83"><defs><style>.cls-1{fill:none;stroke-miterlimit:10;stroke-width:6px;stroke:url(#linear-gradient);}.cls-2{isolation:isolate;}.cls-3{fill:#333132;}.cls-4{fill:#ef4136;}</style><linearGradient id="linear-gradient" x1="88.49" y1="198.35" x2="-8.75" y2="142.2" gradientTransform="matrix(1, 0, 0, -1, 0, 223)" gradientUnits="userSpaceOnUse"><stop offset="0.06" stop-color="#f7941d"/><stop offset="0.12" stop-color="#f6871e"/><stop offset="0.36" stop-color="#f25920"/><stop offset="0.58" stop-color="#ef3822"/><stop offset="0.75" stop-color="#ee2324"/><stop offset="0.87" stop-color="#ed1c24"/></linearGradient></defs><g id="Layer_2" data-name="Layer 2"><g id="Layer_1-2" data-name="Layer 1"><g id="Layer_2-2" data-name="Layer 2"><g id="Layer_1-2-2" data-name="Layer 1-2"><path class="cls-1" d="M11.8,99H68.42c3.31-.85,6-4.36,6-8.69V16.48c0-4.57-3-8.27-6.49-8.27h.24M3,93H59.94c3.26,0,5.89-3.51,5.89-7.84V11.27C65.83,5.48,64.36,3,59.61,3H3Zm-.68.34L18,104.83h.44l55.75-.48c3.51-.08,7.88-4.07,7.88-9.07V22.67c0-4.57-2.24-8.22-5.89-8.22"/><g class="cls-2"><path class="cls-3" d="M126.22,104.32H112.13a2.78,2.78,0,0,1-2.52-1.2,7.29,7.29,0,0,1-.77-3.87V8a7.34,7.34,0,0,1,.77-3.87A2.8,2.8,0,0,1,112.13,3h30.48q10.24,0,14.14,6.54t3.89,17v6.48A38.36,38.36,0,0,1,159.49,43a9.88,9.88,0,0,1-4,6c3.3.56,6,2.63,8,6.19s3.06,8.31,3.06,14.22V99.25a7.39,7.39,0,0,1-.77,3.87,2.78,2.78,0,0,1-2.52,1.2H149.1a2.75,2.75,0,0,1-2.51-1.2,7.28,7.28,0,0,1-.78-3.87V77.71a10.28,10.28,0,0,0-.78-4.58,2.8,2.8,0,0,0-2.7-1.47H129.52V99.25a7.28,7.28,0,0,1-.78,3.87A2.78,2.78,0,0,1,126.22,104.32Zm3.3-76v18h6.86a3.16,3.16,0,0,0,3.21-1.9,11.89,11.89,0,0,0,.82-4.72V34.91a11.89,11.89,0,0,0-.82-4.72,3.16,3.16,0,0,0-3.21-1.9Z"/><path class="cls-3" d="M221.68,104.32H179.21a2.75,2.75,0,0,1-2.51-1.2,7.28,7.28,0,0,1-.78-3.87V8a7.33,7.33,0,0,1,.78-3.87A2.77,2.77,0,0,1,179.21,3h42.47a2.8,2.8,0,0,1,2.52,1.19A7.44,7.44,0,0,1,225,8V24.49a7.44,7.44,0,0,1-.77,3.87,2.78,2.78,0,0,1-2.52,1.2H196.42V40.4h17.85a2.79,2.79,0,0,1,2.51,1.19,7.37,7.37,0,0,1,.78,3.88V60.53a7.28,7.28,0,0,1-.78,3.87,2.78,2.78,0,0,1-2.51,1.2H196.42V77.71h25.26a2.78,2.78,0,0,1,2.52,1.2,7.44,7.44,0,0,1,.77,3.87V99.25a7.39,7.39,0,0,1-.77,3.87A2.78,2.78,0,0,1,221.68,104.32Z"/><path class="cls-3" d="M253.53,99.25a7.28,7.28,0,0,1-.78,3.87,2.78,2.78,0,0,1-2.52,1.2H236.78a2.78,2.78,0,0,1-2.52-1.2,7.28,7.28,0,0,1-.78-3.87V62.08a62.92,62.92,0,0,1,.87-9.71q.87-5.49,2.7-12.82l8-32a7.07,7.07,0,0,1,1.69-3.52,4,4,0,0,1,3-1.12H274.3a4,4,0,0,1,2.89,1.12,7.15,7.15,0,0,1,1.69,3.52l8,32q1.83,7.34,2.7,12.82a62.92,62.92,0,0,1,.87,9.71V99.25a7.28,7.28,0,0,1-.78,3.87,2.78,2.78,0,0,1-2.51,1.2H273.3a3.1,3.1,0,0,1-2.7-1.2,6.59,6.59,0,0,1-.87-3.87V79.54h-16.2Zm5.21-66.74-4.3,21.4h14.37l-4.3-21.4a6.23,6.23,0,0,0-.78-1.83,1.18,1.18,0,0,0-1-.56h-2.29a1.21,1.21,0,0,0-1,.56A6.51,6.51,0,0,0,258.74,32.51Z"/><path class="cls-3" d="M334.89,104.32H304.05a2.78,2.78,0,0,1-2.52-1.2,7.28,7.28,0,0,1-.78-3.87V8a7.33,7.33,0,0,1,.78-3.87A2.8,2.8,0,0,1,304.05,3h30.84q11.43,0,17,7t5.53,21.68V75.6q0,14.64-5.53,21.68T334.89,104.32ZM321.53,29.84V77.71h10.89A3.57,3.57,0,0,0,335.67,76a10.11,10.11,0,0,0,1.05-5.21V36.6a9.7,9.7,0,0,0-1.05-5.14,3.62,3.62,0,0,0-3.25-1.62Z"/><path class="cls-3" d="M369.94,104.32a2.78,2.78,0,0,1-2.52-1.2,7.28,7.28,0,0,1-.78-3.87V82.5a7.3,7.3,0,0,1,.78-3.87,2.78,2.78,0,0,1,2.52-1.2H379V30.12h-9.06a2.78,2.78,0,0,1-2.52-1.2,7.3,7.3,0,0,1-.78-3.87V8a7.33,7.33,0,0,1,.78-3.87A2.8,2.8,0,0,1,369.94,3h39a2.79,2.79,0,0,1,2.51,1.19A7.33,7.33,0,0,1,412.22,8v17a7.3,7.3,0,0,1-.78,3.87,2.78,2.78,0,0,1-2.51,1.2h-8.88V77.43h8.88a2.78,2.78,0,0,1,2.51,1.2,7.3,7.3,0,0,1,.78,3.87V99.25a7.28,7.28,0,0,1-.78,3.87,2.78,2.78,0,0,1-2.51,1.2Z"/><path class="cls-3" d="M439.59,104.32H425.86a2.78,2.78,0,0,1-2.52-1.2,7.28,7.28,0,0,1-.78-3.87V8a7.33,7.33,0,0,1,.78-3.87A2.8,2.8,0,0,1,425.86,3h9.51a5.17,5.17,0,0,1,3,.84,8.78,8.78,0,0,1,2.43,3L458.53,38V8a7.33,7.33,0,0,1,.78-3.87A2.79,2.79,0,0,1,461.83,3h13.72a2.8,2.8,0,0,1,2.52,1.19A7.33,7.33,0,0,1,478.85,8V99.25a7.28,7.28,0,0,1-.78,3.87,2.78,2.78,0,0,1-2.52,1.2H461.83a2.77,2.77,0,0,1-2.52-1.2,7.28,7.28,0,0,1-.78-3.87V81.93L442.88,52.79V99.25a7.28,7.28,0,0,1-.78,3.87A2.78,2.78,0,0,1,439.59,104.32Z"/><path class="cls-3" d="M540.9,104.32H512.07q-11.45,0-17-7T489.55,75.6V31.67q0-14.64,5.54-21.68t17-7H535a2.77,2.77,0,0,1,2.51,1.19A7.33,7.33,0,0,1,538.24,8v17a7.3,7.3,0,0,1-.78,3.87,2.75,2.75,0,0,1-2.51,1.2h-19a5,5,0,0,0-4.21,1.76,8.52,8.52,0,0,0-1.37,5.28V70.81A10.11,10.11,0,0,0,511.38,76a3.46,3.46,0,0,0,3.16,1.69h8.88v-22a7.35,7.35,0,0,1,.78-3.88,2.77,2.77,0,0,1,2.51-1.19H540.9a2.78,2.78,0,0,1,2.51,1.19,7.35,7.35,0,0,1,.78,3.88v43.5a7.28,7.28,0,0,1-.78,3.87A2.76,2.76,0,0,1,540.9,104.32Z"/></g><g class="cls-2"><g class="cls-2"><path class="cls-4" d="M585.86,104.6H571.67a2.8,2.8,0,0,1-2.52-1.19,7.36,7.36,0,0,1-.77-3.88V8.3a7.36,7.36,0,0,1,.77-3.88,2.8,2.8,0,0,1,2.52-1.19h28q12.44,0,17,7.6t4.57,19.85v18q0,12.24-4.57,19.85t-17,7.6H589.15V99.53a7.35,7.35,0,0,1-.78,3.88A2.79,2.79,0,0,1,585.86,104.6Zm3.11-75V50.82h8.24a3.35,3.35,0,0,0,3.47-2.11,13.11,13.11,0,0,0,.83-4.79V36.46a13.07,13.07,0,0,0-.83-4.79,3.33,3.33,0,0,0-3.47-2.11Z"/></g><g class="cls-2"><path class="cls-4" d="M648.55,99.53a7.35,7.35,0,0,1-.78,3.88,2.8,2.8,0,0,1-2.52,1.19H631.8a2.8,2.8,0,0,1-2.52-1.19,7.36,7.36,0,0,1-.77-3.88V62.36a62.8,62.8,0,0,1,.86-9.71c.59-3.66,1.48-7.93,2.71-12.82l8-32a7.11,7.11,0,0,1,1.69-3.52,4.05,4.05,0,0,1,3-1.12h24.61a4,4,0,0,1,2.89,1.12,7.2,7.2,0,0,1,1.69,3.52l8,32q1.83,7.34,2.7,12.82a62.92,62.92,0,0,1,.87,9.71V99.53a7.35,7.35,0,0,1-.78,3.88,2.79,2.79,0,0,1-2.51,1.19H668.32a3.13,3.13,0,0,1-2.7-1.19,6.72,6.72,0,0,1-.87-3.88V79.82h-16.2Zm5.22-66.74L649.46,54.2h14.37l-4.3-21.41a6,6,0,0,0-.78-1.83,1.18,1.18,0,0,0-1-.56H655.5a1.21,1.21,0,0,0-1,.56A6.26,6.26,0,0,0,653.77,32.79Z"/></g><g class="cls-2"><path class="cls-4" d="M746.56,104.6H700a2.8,2.8,0,0,1-2.52-1.19,7.46,7.46,0,0,1-.77-3.88V8.3a7.46,7.46,0,0,1,.77-3.88A2.8,2.8,0,0,1,700,3.23h14.19a2.79,2.79,0,0,1,2.51,1.19,7.35,7.35,0,0,1,.78,3.88V78H730V55.18a7.33,7.33,0,0,1,.78-3.87,2.75,2.75,0,0,1,2.51-1.2h13.27a2.78,2.78,0,0,1,2.52,1.2,7.33,7.33,0,0,1,.78,3.87V99.53a7.35,7.35,0,0,1-.78,3.88A2.8,2.8,0,0,1,746.56,104.6Z"/></g></g></g></g></g></g></svg>