<svg id="Component_63_1" data-name="Component 63 – 1" xmlns="http://www.w3.org/2000/svg" width="44.207" height="41.252" viewBox="0 0 44.207 41.252">
  <path id="ic_center_focus_strong_24px" d="M7.912,30.5H3v9.167a4.77,4.77,0,0,0,4.912,4.584h9.824V39.669H7.912Zm0-22.918h9.824V3H7.912A4.77,4.77,0,0,0,3,7.584v9.167H7.912ZM42.3,3H32.471V7.584H42.3v9.167h4.912V7.584A4.77,4.77,0,0,0,42.3,3Zm0,36.669H32.471v4.584H42.3a4.77,4.77,0,0,0,4.912-4.584V30.5H42.3Z" transform="translate(-3 -3)" fill="#212121"/>
  <text id="T" transform="translate(14.824 29)" fill="#212121" font-size="25" font-family="SegoeUI-Bold, Segoe UI" font-weight="700"><tspan x="0" y="0">T</tspan></text>
  <text id="T-2" data-name="T" transform="translate(9.824 24)" fill="rgba(0,0,0,0.63)" font-size="10" font-family="SegoeUI-Bold, Segoe UI" font-weight="700"><tspan x="0" y="0">T</tspan></text>
  <text id="T-3" data-name="T" transform="translate(28.824 24)" fill="rgba(0,0,0,0.63)" font-size="10" font-family="SegoeUI-Bold, Segoe UI" font-weight="700"><tspan x="0" y="0">T</tspan></text>
</svg>
