<svg xmlns="http://www.w3.org/2000/svg" width="27.919" height="25.72" viewBox="0 0 27.919 25.72">
  <path id="Rabbit" d="M260.4,253.166a2.146,2.146,0,1,1,4.291,0v.08a7.111,7.111,0,0,1,5.418-2.494h6.651l2.816-2.682a9.886,9.886,0,0,1-4.425,1.073,9.648,9.648,0,0,1-6.732-2.709h11.559a12.685,12.685,0,0,1-1.046-.751,9.8,9.8,0,0,1-3.487-6.383l12.873,10.755-1.073,2.2s-.858,2.038-2.333,2.038H281.56c.027.3.054.617.054.939a7.133,7.133,0,0,1-3.782,6.3h.51a3.48,3.48,0,0,1,3.487,3.486H270.055a7.136,7.136,0,0,1-6.544-9.977,2.127,2.127,0,0,1-3.111-1.877Zm23.521-3.111a.617.617,0,1,0-.617-.617A.624.624,0,0,0,283.921,250.055Z" transform="translate(-260.4 -239.3)" fill="#212121"/>
</svg>
