<svg xmlns="http://www.w3.org/2000/svg" viewBox="0 0 36 40"><g id="Layer_2" data-name="Layer 2"><g id="Layer_1-2" data-name="Layer 1"><path d="M35,5a.94.94,0,0,0-1,1V38H5a3,3,0,0,1,0-6H32a.94.94,0,0,0,1-1V1a.94.94,0,0,0-1-1H5A5,5,0,0,0,0,5V35a5,5,0,0,0,5,5H35a.94.94,0,0,0,1-1V6A.94.94,0,0,0,35,5ZM31,30H6V2H31Zm2,5a.94.94,0,0,1-1,1H5a1,1,0,0,1,0-2H32A.94.94,0,0,1,33,35ZM10,8a.94.94,0,0,1,1-1H26a.94.94,0,0,1,1,1,.94.94,0,0,1-1,1H11A.94.94,0,0,1,10,8Zm16,4a.94.94,0,0,1-1,1H12a1,1,0,0,1,0-2H25A.94.94,0,0,1,26,12Z"/></g></g></svg>